<svg width="32" height="32" viewBox="0 0 32 32" fill="none" xmlns="http://www.w3.org/2000/svg">
<g clip-path="url(#clip0_1_149)">
<path d="M15.2064 0.175931L0.779694 6.91593C0.682133 6.96067 0.599485 7.0325 0.541588 7.12288C0.483691 7.21325 0.452985 7.31836 0.453125 7.42569C0.453266 7.53302 0.484246 7.63805 0.542379 7.72827C0.600513 7.8185 0.683349 7.89011 0.781027 7.9346L15.321 14.6253C15.7504 14.8226 16.2464 14.8226 16.6757 14.6253L31.2157 7.9346C31.3134 7.89024 31.3964 7.81873 31.4546 7.72859C31.5129 7.63844 31.544 7.53345 31.5443 7.42612C31.5445 7.31879 31.514 7.21364 31.4562 7.12319C31.3984 7.03274 31.3159 6.9608 31.2184 6.91593L16.7904 0.175931C16.5424 0.0600563 16.2721 0 15.9984 0C15.7247 0 15.4543 0.0600563 15.2064 0.175931Z" fill="#8C30F5"/>
<path opacity="0.64" d="M31.219 15.5679L28.239 14.1759C28.0256 14.0761 27.793 14.0241 27.5575 14.0234C27.3219 14.0228 27.089 14.0734 26.875 14.1719L16.6764 18.8652C16.4639 18.9629 16.2329 19.0135 15.999 19.0135C15.7652 19.0135 15.5341 18.9629 15.3217 18.8652L5.1217 14.1719C4.90788 14.0736 4.67524 14.0231 4.43992 14.0237C4.20461 14.0244 3.97227 14.0763 3.75903 14.1759L0.779029 15.5679C0.681526 15.6127 0.598972 15.6847 0.541193 15.7751C0.483414 15.8656 0.452846 15.9707 0.453127 16.0781C0.453408 16.1854 0.484525 16.2904 0.542777 16.3805C0.601029 16.4707 0.683961 16.5422 0.781697 16.5865L15.3217 23.2759C15.534 23.3741 15.7651 23.4249 15.999 23.4249C16.2329 23.4249 16.4641 23.3741 16.6764 23.2759L31.2164 16.5865C31.3141 16.5422 31.397 16.4707 31.4553 16.3805C31.5135 16.2904 31.5447 16.1854 31.5449 16.0781C31.5452 15.9707 31.5146 15.8656 31.4569 15.7751C31.3991 15.6847 31.3165 15.6127 31.219 15.5679Z" fill="#D6B1FF"/>
<path d="M31.2195 24.1441L28.2395 22.7521C28.0261 22.6524 27.7935 22.6004 27.558 22.5997C27.3224 22.599 27.0895 22.6496 26.8755 22.7481L16.6769 27.4401C16.4644 27.5378 16.2334 27.5883 15.9995 27.5883C15.7657 27.5883 15.5346 27.5378 15.3222 27.4401L5.1222 22.7468C4.90838 22.6485 4.67574 22.5979 4.44042 22.5986C4.20511 22.5993 3.97277 22.6512 3.75953 22.7507L0.77953 24.1441C0.682403 24.1891 0.60022 24.261 0.542716 24.3513C0.485213 24.4416 0.454799 24.5465 0.45508 24.6536C0.455361 24.7607 0.486325 24.8654 0.544301 24.9554C0.602277 25.0454 0.684836 25.1169 0.782198 25.1614L15.3222 31.8521C15.7515 32.0494 16.2475 32.0494 16.6769 31.8521L31.2169 25.1614C31.3142 25.1169 31.3968 25.0454 31.4548 24.9554C31.5127 24.8654 31.5437 24.7607 31.544 24.6536C31.5443 24.5465 31.5138 24.4416 31.4563 24.3513C31.3988 24.261 31.3167 24.1891 31.2195 24.1441Z" fill="#2EC5CE"/>
</g>
<defs>
<clipPath id="clip0_1_149">
<rect width="32" height="32" fill="white"/>
</clipPath>
</defs>
</svg>
